<svg width="25" height="25" viewBox="0 0 25 25" fill="none" xmlns="http://www.w3.org/2000/svg">
<path d="M12.4999 2.34033C10.0265 2.34043 7.63376 3.22066 5.74991 4.82351C3.86606 6.42635 2.61401 8.64723 2.21779 11.0888C1.82158 13.5303 2.30705 16.0331 3.58734 18.1495C4.86764 20.2658 6.8592 21.8575 9.2057 22.6398C9.72653 22.731 9.92184 22.4185 9.92184 22.145C9.92184 21.8976 9.90881 21.0773 9.90881 20.2049C7.29161 20.6867 6.61453 19.5669 6.4062 18.981C6.17503 18.4111 5.80857 17.9061 5.33849 17.5096C4.97391 17.3143 4.45307 16.8325 5.32546 16.8195C5.65857 16.8557 5.97806 16.9716 6.25685 17.1574C6.53565 17.3433 6.76554 17.5936 6.92703 17.8872C7.0695 18.1431 7.26107 18.3684 7.49077 18.5502C7.72047 18.732 7.98377 18.8666 8.26561 18.9465C8.54744 19.0263 8.84225 19.0497 9.13315 19.0154C9.42406 18.9811 9.70533 18.8898 9.96086 18.7466C10.006 18.217 10.242 17.7219 10.6249 17.3534C8.30724 17.093 5.88536 16.1945 5.88536 12.2102C5.87073 11.1749 6.25274 10.1733 6.95307 9.41068C6.63462 8.5109 6.67188 7.52347 7.05724 6.65026C7.05724 6.65026 7.9296 6.37681 9.92182 7.71797C11.6263 7.24919 13.4257 7.24919 15.1302 7.71797C17.1223 6.3638 17.9947 6.65026 17.9947 6.65026C18.3802 7.52346 18.4174 8.51091 18.0989 9.41068C18.8013 10.172 19.1837 11.1745 19.1666 12.2102C19.1666 16.2075 16.7317 17.093 14.414 17.3534C14.6626 17.6053 14.8541 17.9079 14.9754 18.2404C15.0967 18.5729 15.1451 18.9276 15.1171 19.2805C15.1171 20.6737 15.1041 21.7935 15.1041 22.145C15.1041 22.4185 15.2994 22.744 15.8202 22.6398C18.1626 21.8512 20.1485 20.2557 21.4233 18.1383C22.6981 16.0209 23.179 13.5193 22.78 11.0802C22.3811 8.641 21.1283 6.42301 19.2452 4.82211C17.3622 3.22122 14.9715 2.34162 12.4999 2.34033Z" fill="#12F7D6"/>
</svg>
