<svg width="26" height="24" viewBox="0 0 26 24" fill="none" xmlns="http://www.w3.org/2000/svg">
<path d="M20.5833 3C21.158 3 21.7091 3.21071 22.1154 3.58579C22.5217 3.96086 22.75 4.46957 22.75 5V19C22.75 19.5304 22.5217 20.0391 22.1154 20.4142C21.7091 20.7893 21.158 21 20.5833 21H5.41667C4.84203 21 4.29093 20.7893 3.8846 20.4142C3.47827 20.0391 3.25 19.5304 3.25 19V5C3.25 4.46957 3.47827 3.96086 3.8846 3.58579C4.29093 3.21071 4.84203 3 5.41667 3H20.5833ZM20.0417 18.5V13.2C20.0417 12.3354 19.6696 11.5062 19.0073 10.8948C18.3449 10.2835 17.4467 9.94 16.51 9.94C15.5892 9.94 14.5167 10.46 13.9967 11.24V10.13H10.9742V18.5H13.9967V13.57C13.9967 12.8 14.6683 12.17 15.5025 12.17C15.9047 12.17 16.2905 12.3175 16.5749 12.5801C16.8594 12.8426 17.0192 13.1987 17.0192 13.57V18.5H20.0417ZM7.45333 8.56C7.93603 8.56 8.39895 8.383 8.74027 8.06794C9.08158 7.75288 9.27333 7.32556 9.27333 6.88C9.27333 5.95 8.46083 5.19 7.45333 5.19C6.96777 5.19 6.50209 5.36805 6.15874 5.68499C5.81539 6.00193 5.6225 6.43178 5.6225 6.88C5.6225 7.81 6.44583 8.56 7.45333 8.56ZM8.95917 18.5V10.13H5.95833V18.5H8.95917Z" fill="#12F7D6"/>
</svg>
